HIERARCHY
ROOT root
{
	OFFSET 0.000000 0.000000 0.000000
	CHANNELS 6 Xposition Yposition Zposition Zrotation Yrotation Xrotation
	JOINT lhip
	{
		OFFSET 0.058581 -0.082280 -0.017664
		CHANNELS 3 Zrotation Yrotation Xrotation
		JOINT lknee
		{
			OFFSET 0.043451 -0.386469 0.008037
			CHANNELS 3 Zrotation Yrotation Xrotation
			JOINT lankle
			{
				OFFSET -0.014790 -0.426874 -0.037428
				CHANNELS 3 Zrotation Yrotation Xrotation
				JOINT ltoe
				{
					OFFSET 0.041054 -0.060286 0.122042
					CHANNELS 3 Zrotation Yrotation Xrotation
					End Site
					{
						OFFSET 0.000000 0.000000 0.000000
					}
				}
			}
		}
	}
	JOINT rhip
	{
		OFFSET -0.060310 -0.090513 -0.013543
		CHANNELS 3 Zrotation Yrotation Xrotation
		JOINT rknee
		{
			OFFSET -0.043257 -0.383688 -0.004843
			CHANNELS 3 Zrotation Yrotation Xrotation
			JOINT rankle
			{
				OFFSET 0.019056 -0.420046 -0.034562
				CHANNELS 3 Zrotation Yrotation Xrotation
				JOINT rtoe
				{
					OFFSET -0.034840 -0.062106 0.130323
					CHANNELS 3 Zrotation Yrotation Xrotation
					End Site
					{
						OFFSET 0.000000 0.000000 0.000000
					}
				}
			}
		}
	}
	JOINT lowerback
	{
		OFFSET 0.004439 0.124404 -0.038385
		CHANNELS 3 Zrotation Yrotation Xrotation
		JOINT upperback
		{
			OFFSET 0.004488 0.137956 0.026820
			CHANNELS 3 Zrotation Yrotation Xrotation
			JOINT chest
			{
				OFFSET -0.002265 0.056032 0.002855
				CHANNELS 3 Zrotation Yrotation Xrotation
				JOINT lowerneck
				{
					OFFSET -0.013390 0.211636 -0.033468
					CHANNELS 3 Zrotation Yrotation Xrotation
					JOINT upperneck
					{
						OFFSET 0.010113 0.088937 0.050410
						CHANNELS 3 Zrotation Yrotation Xrotation
						End Site
						{
							OFFSET 0.000000 0.000000 0.000000
						}
					}
				}
				JOINT lclavicle
				{
					OFFSET 0.071702 0.114000 -0.018898
					CHANNELS 3 Zrotation Yrotation Xrotation
					JOINT lshoulder
					{
						OFFSET 0.122921 0.045205 -0.019046
						CHANNELS 3 Zrotation Yrotation Xrotation
						JOINT lelbow
						{
							OFFSET 0.255332 -0.015649 -0.022946
							CHANNELS 3 Zrotation Yrotation Xrotation
							JOINT lwrist
							{
								OFFSET 0.265709 0.012698 -0.007375
								CHANNELS 3 Zrotation Yrotation Xrotation
								End Site
								{
									OFFSET 0.000000 0.000000 0.000000
								}
							}
						}
					}
				}
				JOINT rclavicle
				{
					OFFSET -0.082954 0.112472 -0.023707
					CHANNELS 3 Zrotation Yrotation Xrotation
					JOINT rshoulder
					{
						OFFSET -0.113228 0.046853 -0.008472
						CHANNELS 3 Zrotation Yrotation Xrotation
						JOINT relbow
						{
							OFFSET -0.260127 -0.014369 -0.031269
							CHANNELS 3 Zrotation Yrotation Xrotation
							JOINT rwrist
							{
								OFFSET -0.269108 0.006794 -0.006027
								CHANNELS 3 Zrotation Yrotation Xrotation
								End Site
								{
									OFFSET 0.000000 0.000000 0.000000
								}
							}
						}
					}
				}
			}
		}
	}
}
MOTION
Frames: 17
Frame Time: 0.033333
0.015056 0.471168 0.987554 174.001119 -2.004294 83.251223 4.988057 2.117009 3.065168 -7.321808 -2.365383 12.790843 0.713132 9.135478 -11.513634 0.000000 -0.000000 0.000000 -6.585055 -2.329038 -0.529716 2.074442 -1.606366 19.420771 2.688953 -3.806554 -12.722971 0.000000 -0.000000 0.000000 -1.288100 0.801047 2.363497 0.209276 -3.104899 10.797765 -1.303001 0.363578 -2.691173 1.540787 3.759844 0.723020 4.016122 -1.863911 -0.863093 -28.905399 -4.945328 1.961268 -51.896285 -7.476053 9.713260 -0.759453 -20.562696 2.624209 -16.825116 -19.262876 -1.402912 29.237038 11.394225 6.695193 52.672640 8.901492 15.773332 -1.068205 25.466896 8.175412 18.986426 13.709208 2.763318 
0.015192 0.470695 0.987339 173.927746 -1.988254 83.371537 5.026883 2.109920 2.843442 -7.451609 -2.568234 12.971780 0.695133 9.364899 -11.610951 0.000000 -0.000000 0.000000 -6.527615 -2.211437 -0.681778 2.157842 -1.379153 19.452257 2.894611 -3.944670 -12.936997 0.000000 -0.000000 0.000000 -1.276077 0.629631 2.112988 0.115998 -3.078606 10.779156 -1.297607 0.525235 -2.392757 1.581500 3.688755 0.336485 4.111352 -1.745150 -0.655461 -28.370888 -5.025914 1.875963 -52.428625 -7.536505 9.703501 -0.697493 -20.499454 2.788175 -16.774838 -19.615586 -2.097813 29.096361 11.384948 6.947462 52.759305 9.234803 15.677680 -1.033073 25.596828 8.241047 18.967749 13.935976 2.472911 
0.015325 0.470589 0.987293 173.951849 -1.963639 83.351489 5.103532 2.215147 2.829986 -7.529420 -2.562595 13.055752 0.563966 9.330865 -11.611601 0.000000 -0.000000 0.000000 -6.483594 -2.249498 -0.659722 2.173521 -1.289848 19.492018 2.921101 -4.018451 -13.168022 0.000000 -0.000000 0.000000 -1.232856 0.484166 2.116362 0.069690 -3.070258 10.642988 -1.321749 0.625876 -2.147104 1.585565 3.533686 0.148194 4.227116 -1.627960 -0.753128 -28.351890 -5.048977 2.022537 -51.989864 -7.346578 10.128167 -1.097874 -21.117708 4.090217 -16.526577 -20.446571 -3.746601 29.087435 11.248581 7.008306 52.739641 9.445065 15.698346 -0.935215 25.714428 8.681528 19.065062 14.140617 1.703853 
0.015383 0.470485 0.987284 173.992016 -1.942252 83.342904 5.137855 2.234500 2.771317 -7.533511 -2.553192 13.146547 0.533353 9.317661 -11.623041 0.000000 -0.000000 0.000000 -6.458608 -2.283320 -0.648192 2.179058 -1.267326 19.477550 2.901771 -4.014337 -13.143618 0.000000 -0.000000 0.000000 -1.207029 0.468879 2.176534 0.091023 -3.096157 10.603204 -1.308016 0.608127 -2.105428 1.618384 3.525698 -0.013015 4.239778 -1.612297 -1.029278 -28.352104 -5.049385 2.000820 -51.974500 -7.211874 10.302652 -1.171035 -21.460449 4.497696 -16.287288 -20.276696 -3.673490 29.094696 11.233169 6.949607 52.695103 9.394716 15.698476 -0.905198 25.790813 8.694115 18.967641 14.147189 1.575909 
0.015444 0.470503 0.987275 173.981553 -1.950627 83.338258 5.132951 2.226404 2.814480 -7.550510 -2.573829 13.123374 0.530838 9.321039 -11.629635 0.000000 -0.000000 0.000000 -6.475218 -2.258162 -0.630287 2.196288 -1.303865 19.475677 2.891327 -4.040167 -13.146896 0.000000 -0.000000 0.000000 -1.203560 0.465931 2.179482 0.073561 -3.068485 10.588563 -1.278630 0.582513 -2.064795 1.617176 3.622009 -0.217857 4.306298 -1.610428 -1.216992 -28.315840 -5.091230 2.016765 -52.023675 -7.253433 10.113391 -1.075979 -21.246746 4.227454 -16.692236 -20.540510 -3.773541 29.062420 11.308762 6.964626 52.728545 9.389793 15.656104 -0.946815 25.759387 8.659356 19.080817 14.219471 1.556211 
0.015514 0.470435 0.987263 173.998699 -1.948505 83.321193 5.144160 2.238468 2.826710 -7.558044 -2.593834 13.125755 0.521580 9.320188 -11.646413 0.000000 -0.000000 0.000000 -6.464271 -2.275422 -0.614274 2.190503 -1.295241 19.480963 2.887439 -4.043786 -13.172122 0.000000 -0.000000 0.000000 -1.193815 0.459900 2.213598 0.082112 -3.083267 10.570133 -1.265220 0.583614 -2.083468 1.645874 3.608734 -0.295746 4.324583 -1.589902 -1.295144 -28.323517 -5.126082 2.032677 -52.011524 -7.178130 10.191197 -1.108315 -21.437657 4.417866 -16.521957 -20.406469 -3.763944 29.058912 11.330667 6.982824 52.706813 9.375161 15.656378 -0.929948 25.793577 8.686067 19.023174 14.191254 1.489401 
0.015554 0.470422 0.987257 174.012143 -1.948064 83.315940 5.146759 2.228363 2.840592 -7.569640 -2.602668 13.108019 0.508899 9.322938 -11.621749 0.000000 -0.000000 0.000000 -6.470568 -2.278524 -0.593516 2.218116 -1.284200 19.466222 2.861274 -4.039347 -13.201729 0.000000 -0.000000 0.000000 -1.186844 0.482273 2.267512 0.090560 -3.071833 10.530831 -1.238520 0.590030 -2.066145 1.698513 3.668534 -0.616069 4.396094 -1.605691 -1.456105 -28.362552 -5.198831 2.057806 -51.999900 -7.145103 10.139232 -1.110216 -21.456299 4.394508 -16.464855 -20.459048 -3.870630 29.034703 11.389566 6.975040 52.681398 9.317014 15.666777 -0.981295 25.803910 8.745636 19.129475 14.213418 1.487779 
0.015624 0.470418 0.987259 174.014661 -1.958928 83.326168 5.127359 2.214208 2.831572 -7.554162 -2.616028 13.110706 0.545408 9.342630 -11.647914 0.000000 -0.000000 0.000000 -6.470673 -2.279123 -0.618085 2.207558 -1.287126 19.490304 2.870030 -4.060722 -13.202130 0.000000 -0.000000 0.000000 -1.170626 0.478882 2.249915 0.089628 -3.065688 10.518766 -1.243677 0.590981 -2.091200 1.704813 3.605410 -0.693237 4.401792 -1.625083 -1.515375 -28.372701 -5.203632 2.040059 -52.004681 -7.139018 10.127178 -1.088089 -21.406177 4.323944 -16.470589 -20.458530 -3.848485 29.025766 11.407131 6.968025 52.696660 9.306599 15.673433 -0.951500 25.788093 8.738605 19.100952 14.189580 1.488900 
0.015563 0.470544 0.987277 174.020765 -1.945665 83.333855 5.152977 2.229636 2.787217 -7.605131 -2.627006 13.197102 0.519545 9.325994 -11.659076 0.000000 -0.000000 0.000000 -6.461590 -2.277112 -0.597869 2.213919 -1.260221 19.470883 2.852719 -4.080192 -13.209692 0.000000 -0.000000 0.000000 -1.075254 0.456632 2.268457 0.055465 -3.051707 10.454435 -1.274362 0.631052 -2.108594 1.746892 3.592753 -0.757545 4.349519 -1.489827 -1.618379 -28.411312 -5.155216 1.969236 -52.010330 -7.057285 10.207414 -0.974524 -21.536685 4.456972 -16.576133 -20.390249 -3.679954 29.012802 11.431833 7.007690 52.718811 9.252885 15.693546 -0.967532 25.801753 8.727037 19.106830 14.178089 1.464935 
0.015651 0.470520 0.987235 174.036390 -1.979195 83.334492 5.119968 2.198921 2.769167 -7.600360 -2.601310 13.240464 0.563582 9.341278 -11.680156 0.000000 -0.000000 0.000000 -6.496042 -2.274870 -0.604047 2.223465 -1.293462 19.479457 2.835942 -4.059216 -13.249002 0.000000 -0.000000 0.000000 -1.078383 0.478962 2.269801 0.040454 -3.049740 10.432251 -1.266345 0.638699 -2.120474 1.736208 3.661720 -0.824487 4.402366 -1.504317 -1.662008 -28.411004 -5.152262 1.955333 -52.022831 -7.135384 10.032978 -0.994748 -21.262431 4.154515 -16.847818 -20.600252 -3.806522 29.040776 11.414653 7.003055 52.699061 9.231028 15.660521 -0.989013 25.806007 8.708685 19.239578 14.221370 1.535906 
0.015756 0.470562 0.987202 174.051436 -1.995628 83.326457 5.110210 2.213466 2.791923 -7.600373 -2.621257 13.225173 0.557512 9.332610 -11.683558 0.000000 -0.000000 0.000000 -6.500657 -2.290207 -0.604339 2.210186 -1.280521 19.503467 2.846012 -4.067656 -13.240233 0.000000 -0.000000 0.000000 -1.059252 0.492358 2.269474 0.032369 -3.036342 10.428117 -1.285689 0.637119 -2.124263 1.735309 3.649971 -0.860150 4.381112 -1.492567 -1.654908 -28.417261 -5.138746 1.966173 -52.001757 -7.104101 10.109545 -1.075557 -21.399881 4.373225 -16.721085 -20.515273 -3.756367 29.061866 11.392380 6.994228 52.674596 9.226794 15.672960 -0.948392 25.821200 8.734770 19.173620 14.197291 1.510124 
0.015760 0.470572 0.987206 174.066486 -2.006134 83.317414 5.106048 2.221936 2.796041 -7.606293 -2.622319 13.222194 0.555844 9.331243 -11.686243 0.000000 -0.000000 0.000000 -6.511970 -2.299191 -0.608392 2.204578 -1.269276 19.524936 2.856420 -4.071262 -13.238995 0.000000 -0.000000 0.000000 -1.040109 0.502734 2.278129 0.033218 -3.028232 10.426692 -1.290202 0.638620 -2.128362 1.729262 3.637513 -0.901646 4.362182 -1.491580 -1.654077 -28.409195 -5.133739 1.974184 -52.000123 -7.078718 10.158499 -1.110849 -21.486892 4.507866 -16.652916 -20.435722 -3.720001 29.069965 11.377235 6.984873 52.652921 9.219008 15.676484 -0.927412 25.839398 8.752874 19.145985 14.177663 1.500176 
0.015768 0.470601 0.987200 174.173503 -2.027850 83.310258 5.084902 2.212387 2.802091 -7.611325 -2.656062 13.188918 0.529790 9.286927 -11.672470 0.000000 -0.000000 0.000000 -6.541222 -2.326509 -0.596707 2.194035 -1.334442 19.554393 2.849629 -4.117857 -13.242565 0.000000 -0.000000 0.000000 -1.066700 0.499471 2.293428 0.023633 -3.035599 10.447177 -1.269594 0.611962 -2.142702 1.763683 3.635911 -1.064694 4.404419 -1.489977 -1.626791 -28.369094 -5.165593 2.006883 -52.019173 -7.090472 10.069934 -1.025093 -21.435569 4.371060 -16.740303 -20.475232 -3.780407 29.081498 11.387512 6.979080 52.605211 9.169993 15.664087 -0.885967 25.885772 8.779434 19.112566 14.218812 1.527918 
0.015857 0.470589 0.987269 174.190499 -2.035476 83.321178 5.073994 2.213819 2.789369 -7.598481 -2.644224 13.187539 0.508899 9.274690 -11.669171 0.000000 -0.000000 0.000000 -6.538221 -2.324310 -0.594201 2.190242 -1.324314 19.537461 2.848568 -4.123210 -13.236069 0.000000 -0.000000 0.000000 -1.079103 0.504543 2.273540 0.025978 -3.035252 10.445066 -1.269871 0.603748 -2.137307 1.810863 3.624695 -1.084988 4.422861 -1.482721 -1.590740 -28.387643 -5.167301 2.011474 -51.979562 -7.094519 10.074059 -1.117660 -21.390869 4.392056 -16.695204 -20.500014 -3.825105 29.105319 11.362073 6.970029 52.596378 9.178411 15.668214 -0.877854 25.885786 8.781438 19.087539 14.205867 1.520514 
0.015957 0.470681 0.987302 174.194542 -2.057080 83.369400 5.024768 2.159901 2.824591 -7.551372 -2.662121 13.024625 0.467469 9.323897 -11.575068 0.000000 -0.000000 0.000000 -6.557272 -2.302585 -0.621403 2.200605 -1.351209 19.496946 2.850330 -4.123300 -13.240583 0.000000 -0.000000 0.000000 -1.121196 0.523595 2.155892 0.015505 -3.033565 10.482678 -1.261662 0.562936 -2.128399 1.856894 3.596551 -1.063988 4.491520 -1.534276 -1.555715 -28.381958 -5.147186 2.045939 -51.964475 -7.129502 9.976478 -1.111013 -21.220044 4.200514 -16.669600 -20.763906 -3.923414 29.104195 11.396004 6.992161 52.640833 9.230677 15.680237 -0.881730 25.785796 8.818658 19.021845 14.302084 1.602218 
0.016042 0.470675 0.987363 174.198431 -2.052925 83.372672 5.036738 2.164555 2.820160 -7.547238 -2.667779 13.027357 0.477337 9.322996 -11.580490 0.000000 -0.000000 0.000000 -6.550055 -2.308985 -0.626137 2.198478 -1.348540 19.496973 2.851114 -4.129525 -13.230670 0.000000 -0.000000 0.000000 -1.123720 0.522264 2.164833 0.016136 -3.033379 10.463949 -1.264686 0.568093 -2.133782 1.864058 3.580423 -1.059247 4.488590 -1.537564 -1.550276 -28.382260 -5.137529 2.043175 -51.980594 -7.119872 10.011868 -1.124377 -21.254813 4.272278 -16.665616 -20.714242 -3.894778 29.098982 11.384004 6.983311 52.660948 9.225731 15.690473 -0.886254 25.795581 8.836073 19.023876 14.276671 1.592381 
0.016149 0.470673 0.987371 174.196533 -2.040549 83.376995 5.049442 2.182499 2.825201 -7.531460 -2.681789 13.013301 0.484252 9.312051 -11.576963 0.000000 -0.000000 0.000000 -6.536463 -2.314716 -0.613900 2.212451 -1.356936 19.464925 2.855050 -4.123563 -13.213266 0.000000 -0.000000 0.000000 -1.122858 0.515817 2.183096 0.024757 -3.028396 10.453245 -1.265282 0.581434 -2.143980 1.864341 3.555425 -1.056065 4.477733 -1.567534 -1.559977 -28.388584 -5.113556 2.034570 -51.998351 -7.096102 10.052266 -1.149706 -21.336761 4.370632 -16.684203 -20.635616 -3.839736 29.098173 11.349290 6.977963 52.658316 9.211447 15.690724 -0.881055 25.814024 8.856347 19.035202 14.234512 1.597200 
